{"title":"World War Z 2013 CAM XviD-THC","uid":8634124,"size":1620481393,"categoryP":"video","categoryS":"movies","magnet":"?xt=urn:btih:b791e55df4b5d2597f412f018c81841379dc635e&amp;dn=World+War+Z+2013+CAM+XviD-THC&amp;tr=udp%3A%2F%2Ftracker.openbittorrent.com%3A80&amp;tr=udp%3A%2F%2Fopen.demonii.com%3A1337&amp;tr=udp%3A%2F%2Ftracker.coppersurfer.tk%3A6969&amp;tr=udp%3A%2F%2Fexodus.desync.com%3A6969","seeders":1,"leechers":0,"uploader":"HeroMaster","files":-1,"time":1372705232,"description":"World War Z 2013 CAM XviD-THC\n\nSource: THC\nAudio: THC &amp; NOGRP &lt;a href=&quot;\nhttp://www.imdb.com/title/tt0816711/&quot; rel=&quot;nofollow&quot; target=&quot;_NEW&quot;&gt;\nhttp://www.imdb.com/title/tt0816711/&lt;/a&gt;\n\nFormat: AVI\nFormat/Info: Audio Video Interleave\nFile size: 1.49 GiB\nDuration: 1h 48mn\nOverall bit rate: 1 967 Kbps\nWriting library: VirtualDub build 35390/release\n\nVideo\n\nID: 0\nFormat: MPEG-4 Visual\nFormat profile: Advanced Simple@L5\nFormat settings, BVOP: Yes\nFormat settings, QPel: No\nFormat settings, GMC: No warppoints\nFormat settings, Matrix: Default (H.263)\nMuxing mode: Packed bitstream\nCodec ID: XVID\nCodec ID/Hint: XviD\nDuration: 1h 48mn\nBit rate: 1 830 Kbps\nWidth: 720 pixels\nHeight: 304 pixels\nDisplay aspect ratio: 2.35:1\nFrame rate: 24.000 fps\nColor space: YUV\nChroma subsampling: 4:2:0\nBit depth: 8 bits\nScan type: Progressive\nBits/(Pixel*Frame): 0.348\nStream size: 1.39 GiB (93%)\nWriting library: XviD 1.2.1 (UTC 2008-12-04)\n\nAudio\n\nID: 1\nFormat: MPEG Audio\nFormat version: Version 1\nFormat profile: Layer 3\nMode: Joint stereo\nMode extension: MS Stereo\nCodec ID: 55\nCodec ID/Hint: MP3\nDuration: 1h 48mn\nBit rate mode: Constant\nBit rate: 128 Kbps\nChannel(s): 2 channels\nSampling rate: 48.0 KHz\nStream size: 99.5 MiB (7%)\nAlignment: Split accross interleaves\nInterleave, duration: 42 ms (1.00 video frame)\nInterleave, preload duration: 500 ms\n\nWell...We not going to go into details on whats been done this time around... To much to say and went threw hell. Video has been adjusted for light and dark scenes and very very watchable...Our rating, I would say V8 A6. So please be thankful and leave a comment and even a Rep point if possible and also want to thank everyone who follows THC \n\nTHC JOKE:\n\nQ: What is a stoners idea of a balanced diet?\nA: A joint in each hand!\n\nUnited Nations employee Gerry Lane traverses the world in a race against time to stop the Zombie pandemic that is toppling armies and governments, and threatening to destroy humanity itself.\n\n\nPoster:\n\n &lt;a href=&quot;\nhttp://i.imgur.com/ZH7lAIU.jpg&quot; rel=&quot;nofollow&quot; target=&quot;_NEW&quot;&gt;\nhttp://i.imgur.com/ZH7lAIU.jpg&lt;/a&gt;\n\n\nScreenshots:\n\n &lt;a href=&quot;\nhttp://i.imgur.com/FMKtguz.jpg&quot; rel=&quot;nofollow&quot; target=&quot;_NEW&quot;&gt;\nhttp://i.imgur.com/FMKtguz.jpg&lt;/a&gt;\n\n\nSEED AND ENJOY!","torrent":{"xt":"urn:btih:b791e55df4b5d2597f412f018c81841379dc635e","amp;dn":"World+War+Z+2013+CAM+XviD-THC","amp;tr":["udp%3A%2F%2Ftracker.openbittorrent.com%3A80","udp%3A%2F%2Fopen.demonii.com%3A1337","udp%3A%2F%2Ftracker.coppersurfer.tk%3A6969","udp%3A%2F%2Fexodus.desync.com%3A6969"],"infoHash":"b791e55df4b5d2597f412f018c81841379dc635e","infoHashBuffer":{"type":"Buffer","data":[183,145,229,93,244,181,210,89,127,65,47,1,140,129,132,19,121,220,99,94]},"announce":[],"urlList":[]}}